<svg xmlns="http://www.w3.org/2000/svg" width="1200" height="630" viewBox="0 0 1200 630" role="img" aria-labelledby="title desc">
  <title id="title">AI 项目雷达 2026-07-15 Strix 主题头图</title>
  <desc id="desc">A cover image for the Daily AI Content Radar featuring Strix, an AI security agent project.</desc>
  <defs>
    <linearGradient id="bg" x1="0" y1="0" x2="1" y2="1">
      <stop offset="0" stop-color="#fbfaf6"/>
      <stop offset="0.55" stop-color="#eef4ee"/>
      <stop offset="1" stop-color="#dfece6"/>
    </linearGradient>
    <linearGradient id="panel" x1="0" y1="0" x2="1" y2="1">
      <stop offset="0" stop-color="#ffffff" stop-opacity="0.96"/>
      <stop offset="1" stop-color="#edf4ef" stop-opacity="0.92"/>
    </linearGradient>
    <filter id="shadow" x="-20%" y="-20%" width="140%" height="140%">
      <feDropShadow dx="0" dy="18" stdDeviation="22" flood-color="#1f2421" flood-opacity="0.14"/>
    </filter>
  </defs>
  <rect width="1200" height="630" fill="url(#bg)"/>
  <path d="M0 510 C220 440 340 600 560 528 C800 450 930 485 1200 390 L1200 630 L0 630 Z" fill="#28685b" opacity="0.10"/>
  <path d="M820 0 L1200 0 L1200 270 C1090 245 995 185 930 118 C890 78 850 42 820 0 Z" fill="#c86b4f" opacity="0.12"/>

  <g transform="translate(72 78)">
    <text x="0" y="0" font-family="Arial, Helvetica, sans-serif" font-size="22" font-weight="700" fill="#28685b" letter-spacing="2">DAILY AI CONTENT RADAR</text>
    <text x="0" y="92" font-family="Arial, Helvetica, sans-serif" font-size="72" font-weight="800" fill="#1f2421">AI 项目雷达</text>
    <text x="0" y="148" font-family="Arial, Helvetica, sans-serif" font-size="30" font-weight="700" fill="#16463d">2026-07-15 · 主项目：Strix</text>
    <text x="0" y="210" font-family="Arial, Helvetica, sans-serif" font-size="24" fill="#5f6963">开源 AI 渗透测试 agent，用动态验证和修复建议</text>
    <text x="0" y="246" font-family="Arial, Helvetica, sans-serif" font-size="24" fill="#5f6963">把安全扫描接进开发与 CI/CD 工作流。</text>
    <g transform="translate(0 304)">
      <rect x="0" y="0" width="142" height="42" rx="21" fill="#28685b"/>
      <text x="71" y="28" text-anchor="middle" font-family="Arial, Helvetica, sans-serif" font-size="17" font-weight="700" fill="#ffffff">High Momentum</text>
      <rect x="158" y="0" width="128" height="42" rx="21" fill="#dcebe5"/>
      <text x="222" y="28" text-anchor="middle" font-family="Arial, Helvetica, sans-serif" font-size="17" font-weight="700" fill="#16463d">Score 89</text>
      <rect x="302" y="0" width="152" height="42" rx="21" fill="#f3e2da"/>
      <text x="378" y="28" text-anchor="middle" font-family="Arial, Helvetica, sans-serif" font-size="17" font-weight="700" fill="#8d3f2e">README verified</text>
    </g>
  </g>

  <g transform="translate(690 92)" filter="url(#shadow)">
    <rect x="0" y="0" width="420" height="430" rx="26" fill="url(#panel)" stroke="#d6d8d0"/>
    <rect x="32" y="36" width="356" height="78" rx="14" fill="#1f2421"/>
    <circle cx="60" cy="75" r="8" fill="#c86b4f"/>
    <circle cx="86" cy="75" r="8" fill="#e3c15f"/>
    <circle cx="112" cy="75" r="8" fill="#58a884"/>
    <text x="142" y="82" font-family="Consolas, monospace" font-size="18" fill="#dcebe5">strix scan --agent</text>

    <g transform="translate(68 166)">
      <circle cx="142" cy="100" r="96" fill="#dcebe5" stroke="#28685b" stroke-width="3"/>
      <circle cx="142" cy="100" r="64" fill="none" stroke="#8fb9aa" stroke-width="2"/>
      <circle cx="142" cy="100" r="30" fill="none" stroke="#8fb9aa" stroke-width="2"/>
      <line x1="142" y1="4" x2="142" y2="196" stroke="#8fb9aa" stroke-width="2"/>
      <line x1="46" y1="100" x2="238" y2="100" stroke="#8fb9aa" stroke-width="2"/>
      <path d="M142 24 L215 78 L188 164 L96 164 L69 78 Z" fill="#28685b" opacity="0.24" stroke="#28685b" stroke-width="4"/>
      <circle cx="142" cy="24" r="8" fill="#16463d"/>
      <circle cx="215" cy="78" r="8" fill="#16463d"/>
      <circle cx="188" cy="164" r="8" fill="#16463d"/>
      <circle cx="96" cy="164" r="8" fill="#16463d"/>
      <circle cx="69" cy="78" r="8" fill="#16463d"/>
      <path d="M126 96 L138 116 L165 74" fill="none" stroke="#c86b4f" stroke-width="12" stroke-linecap="round" stroke-linejoin="round"/>
    </g>

    <g transform="translate(42 356)" font-family="Arial, Helvetica, sans-serif" font-size="15" font-weight="700">
      <rect x="0" y="0" width="104" height="34" rx="17" fill="#edf4ef"/>
      <text x="52" y="23" text-anchor="middle" fill="#16463d">Recon</text>
      <rect x="122" y="0" width="104" height="34" rx="17" fill="#edf4ef"/>
      <text x="174" y="23" text-anchor="middle" fill="#16463d">Exploit</text>
      <rect x="244" y="0" width="104" height="34" rx="17" fill="#edf4ef"/>
      <text x="296" y="23" text-anchor="middle" fill="#16463d">Fix</text>
    </g>
  </g>
</svg>
